<?xml version="1.0" encoding="utf-8"?>
<!-- Generator: Adobe Illustrator 25.2.3, SVG Export Plug-In . SVG Version: 6.00 Build 0)  -->
<svg version="1.1" id="Capa_1" xmlns="http://www.w3.org/2000/svg" xmlns:xlink="http://www.w3.org/1999/xlink" x="0px" y="0px"
	 viewBox="0 0 25 25" style="enable-background:new 0 0 25 25;" xml:space="preserve">
<style type="text/css">
	.st0{fill:#98F4E5;}
</style>
<path class="st0" d="M12.5,0.13C5.68,0.13,0.16,5.67,0.16,12.5c0,6.83,5.53,12.37,12.34,12.37c6.82,0,12.34-5.54,12.34-12.37
	C24.84,5.67,19.32,0.13,12.5,0.13z M6.21,6.15h12.58c0.28,0,0.54,0.06,0.78,0.16c-0.06,0.03-0.11,0.07-0.16,0.13l-5.62,6.4
	c-0.33,0.37-0.79,0.58-1.29,0.58c-0.49,0-0.96-0.21-1.29-0.58L5.49,6.32C5.48,6.31,5.47,6.31,5.46,6.3C5.69,6.2,5.95,6.15,6.21,6.15
	z M20.73,16.9c0,1.08-0.87,1.95-1.94,1.95H6.21c-1.07,0-1.94-0.87-1.94-1.95V8.1c0-0.37,0.1-0.71,0.28-1
	c0.01,0.01,0.02,0.03,0.03,0.04l5.72,6.51c0.56,0.63,1.36,1,2.2,1c0.84,0,1.64-0.36,2.2-1l5.62-6.4c0.05-0.06,0.08-0.12,0.11-0.19
	c0.19,0.3,0.3,0.65,0.3,1.03V16.9z"/>
</svg>
