<?xml version="1.0" encoding="utf-8"?>
<!-- Generator: Adobe Illustrator 25.2.3, SVG Export Plug-In . SVG Version: 6.00 Build 0)  -->
<svg version="1.1" id="Capa_1" xmlns="http://www.w3.org/2000/svg" xmlns:xlink="http://www.w3.org/1999/xlink" x="0px" y="0px"
	 viewBox="0 0 232 255" style="enable-background:new 0 0 232 255;" xml:space="preserve">
<style type="text/css">
	.st0{fill:#1D1D1B;}
	.st1{fill:#2970EC;}
</style>
<g>
	<g>
		<g>
			<g>
				<path class="st0" d="M13.37,127.02c-1.25,0-2.91,0.35-2.91,1.87c0,2.01,5.54,2.15,6.65,2.15h11.44
					c6.79,0,12.54,3.26,12.54,10.95c0,6.38-4.71,13.17-20.65,13.17c-14.76,0-18.37-4.5-18.37-7.14c0-3.88,5.13-4.37,7.9-4.3
					l0.14-0.14c-3.74-1.11-7.9-3.88-7.9-8.32c0-5.75,4.02-8.45,9.29-9.08v-0.14c-4.57-1.39-8.46-4.5-8.46-9.63
					c0-8.18,11.09-10.26,17.33-10.26c2.22,0,4.44,0.14,6.65,0.42c1.46-3.47,4.92-6.93,8.94-6.93c2.77,0,5.75,1.32,5.75,4.57
					c0,2.91-1.87,4.09-4.57,4.09c-1.73,0-3.67-1.32-3.67-3.19c0-0.69,0.42-1.94,0.42-2.08c-0.07-0.28-0.21-0.48-0.49-0.48
					c-1.87,0-3.88,2.7-4.37,4.37c5.06,1.52,9.98,4.09,9.98,10.12c0,8.73-9.77,9.98-16.56,9.98H13.37z M11.99,144.21
					c-0.97-0.28-2.15,2.77-2.15,3.74c0,4.64,6.38,5.2,9.77,5.2c3.26,0,15.87-0.49,15.87-5.13c0-1.94-0.28-2.77-9.63-2.77
					C19.61,145.25,14.9,145.04,11.99,144.21z M24.25,112.47c0-4.02-1.25-4.78-3.19-4.78c-1.73,0-3.12,1.25-3.12,4.78v9.98
					c0,2.63,1.59,3.4,2.91,3.4c2.56,0,3.4-1.11,3.4-3.4V112.47z"/>
				<path class="st0" d="M91.41,139.91c-6.65,0-13.31,0.69-19.96,0.9v-6.51c-2.91,4.44-7.42,6.65-12.68,6.65
					c-7.35,0-11.3-2.63-11.3-13.31v-18.85h-3.67v-1.66c6.79,0,13.58-0.62,20.38-0.83v27.24c0,1.52,0.76,2.77,2.5,2.77
					c3.4,0,4.23-4.78,4.23-7.35v-20.17h-3.67v-1.66c6.79,0,13.51-0.62,20.31-0.83v31.95h3.88V139.91z"/>
				<path class="st0" d="M117.87,112.26c0-3.12-0.76-4.23-3.95-4.23c-1.25,0-2.77,0.14-2.77,0.76c0,0.9,2.56,1.73,2.56,4.85
					c0,4.78-5.54,5.54-9.22,5.54c-3.4,0-7.62-1.39-7.62-5.48c0-3.05,1.73-7.55,17.26-7.55c3.47,0,9.15,0.49,12.48,1.32
					c4.57,1.04,7.48,3.05,7.48,8.25v18.57c0,0.76,0.28,1.66,1.18,1.66c1.32,0,2.01-0.97,2.84-1.8v2.43
					c-2.63,3.05-6.93,4.37-10.81,4.37c-3.95,0-7.07-0.9-8.87-4.78c-3.46,3.81-8.52,4.78-13.44,4.78c-5.27,0-10.81-2.29-10.81-8.46
					c0-4.57,2.43-9.29,12.13-10.6c3.05-0.42,5.06-0.55,8.18-0.55h3.4V112.26z M117.87,123h-2.5c-4.3,0-3.74,4.92-3.74,8.11
					c0,2.01-0.14,5.75,2.63,5.75c3.81,0,3.6-4.37,3.6-6.93V123z"/>
				<path class="st0" d="M184.47,138.25v1.66c-6.45,0-12.89,0.69-19.41,0.9v-6.31c-2.56,4.44-5.47,6.45-10.67,6.45
					c-9.43,0-14.21-8.66-14.21-17.19c0-8.73,4.57-17.6,14.35-17.6c4.09,0,7.28,1.87,9.7,5.13V93.55h-5.61v-1.66
					c7.42,0,14.76-0.83,22.18-1.04v47.4H184.47z M164.23,117.87c0-4.71-1.53-7.48-3.88-7.48c-2.63,0-2.49,3.19-2.49,7.48v10.81
					c0,6.51,0.83,8.18,2.56,8.18c2.22,0,3.81-3.05,3.81-8.18V117.87z"/>
				<path class="st0" d="M210.32,112.26c0-3.12-0.76-4.23-3.95-4.23c-1.25,0-2.77,0.14-2.77,0.76c0,0.9,2.56,1.73,2.56,4.85
					c0,4.78-5.54,5.54-9.22,5.54c-3.4,0-7.62-1.39-7.62-5.48c0-3.05,1.73-7.55,17.26-7.55c3.47,0,9.15,0.49,12.48,1.32
					c4.57,1.04,7.48,3.05,7.48,8.25v18.57c0,0.76,0.28,1.66,1.18,1.66c1.32,0,2.01-0.97,2.84-1.8v2.43
					c-2.63,3.05-6.93,4.37-10.81,4.37c-3.95,0-7.07-0.9-8.87-4.78c-3.46,3.81-8.52,4.78-13.44,4.78c-5.27,0-10.81-2.29-10.81-8.46
					c0-4.57,2.43-9.29,12.13-10.6c3.05-0.42,5.06-0.55,8.18-0.55h3.4V112.26z M210.32,123h-2.5c-4.3,0-3.74,4.92-3.74,8.11
					c0,2.01-0.14,5.75,2.63,5.75c3.81,0,3.6-4.37,3.6-6.93V123z"/>
			</g>
		</g>
	</g>
	<g>
		<path class="st0" d="M69.3,188.97c-4.09,7.07-9.43,11.37-17.19,11.37c-5.27,0-8.25-1.11-10.33-3.12c-1.94-2.01-3.6-4.3-3.6-11.92
			v-1.8l-4.44,2.15l-1.25-3.19l5.68-3.26v-9.56c0-8.59,1.11-13.24,4.37-17.4c3.81-4.85,8.04-6.24,11.92-6.24
			c7.28,0,10.19,5.34,10.19,11.02c0,8.04-4.16,12.96-13.1,19.54v4.64c0,7.55,1.39,11.64,6.38,11.64c3.81,0,6.93-3.26,9.15-6.17
			L69.3,188.97z M51.56,171.37c2.91-3.4,5.2-6.58,5.2-14.35c0-3.33-0.42-7.48-2.77-7.48c-2.56,0-2.43,3.53-2.43,16.01V171.37z"/>
		<path class="st0" d="M119.4,199.37c-6.65,0-13.31,0.69-19.96,0.9v-6.51c-2.91,4.44-7.42,6.65-12.68,6.65
			c-7.35,0-11.3-2.63-11.3-13.31v-18.85h-3.67v-1.66c6.79,0,13.58-0.62,20.38-0.83v27.24c0,1.52,0.76,2.77,2.5,2.77
			c3.4,0,4.23-4.78,4.23-7.35v-20.17h-3.67v-1.66c6.79,0,13.51-0.62,20.31-0.83v31.95h3.88V199.37z"/>
		<path class="st0" d="M121.2,168.25v-1.66c6.45,0,12.89-0.62,19.34-0.83v6.31c2.77-4.37,5.48-6.45,10.74-6.45
			c9.36,0,14.21,8.8,14.21,17.26c0,8.8-4.57,17.53-14.42,17.53c-4.16,0-7.14-1.8-9.7-5.06v17.6h5.13v1.66h-25.3v-1.66h3.67v-44.7
			H121.2z M141.37,188.14c0,5.13,1.59,8.18,3.81,8.18c1.73,0,2.56-1.66,2.56-8.18v-10.81c0-4.3,0.14-7.48-2.5-7.48
			c-2.36,0-3.88,2.77-3.88,7.48V188.14z"/>
		<path class="st0" d="M185.51,185.16v2.91c0,5.54,1.04,9.91,7.48,9.91c5.13,0,9.77-3.26,12.68-7.28l1.32,0.9
			c-4.16,6.03-9.98,8.8-17.46,8.8c-4.02,0-7.62-0.28-11.37-1.87c-5.89-2.5-10.12-7.35-10.12-15.52c0-11.09,9.15-17.4,19.61-17.4
			c11.99,0,20.31,7.28,20.17,19.54H185.51z M191.47,183.5v-9.56c0-2.43,0.55-6.65-3.12-6.65c-3.19,0-2.84,4.5-2.84,6.65v9.56H191.47
			z"/>
	</g>
	<g>
		<path class="st0" d="M56.29,229.73c0.7-4.24,3.05-6.78,6.81-6.78l-0.35,2.08c-2.38,0-3.89,1.58-4.4,4.7l-0.19,1.14l-0.29,1.72
			c-0.45,2.71-1.47,4.15-3.16,5.19l-0.01,0.07c1.38,1.07,1.68,2.63,1.38,4.78l-0.1,0.7l-0.45,2.55c-0.58,3.28,0.32,4.85,2.69,4.85
			l-0.35,1.93c-3.66,0-5.16-2.57-4.41-6.78l0.45-2.55l0.15-0.78c0.4-2.02-0.58-3.68-1.78-3.78l0.39-2.23
			c1.25-0.1,2.69-1.46,3.1-3.78l0.33-1.89L56.29,229.73L56.29,229.73z"/>
		<path class="st0" d="M69.52,226.77l-1.51,8.55l9.54-0.15l-0.38,2.17l-9.48-0.18l-1.55,8.78l11.23-0.25L77,247.81H63.61l4.04-22.92
			h13.09l-0.37,2.12L69.52,226.77z"/>
		<path class="st0" d="M93.41,233.12h-0.08c-1.09-0.79-2.33-1.2-4.02-1.2c-2.78,0-4.2,1.12-4.2,2.75c0,3.62,7.16,3.51,7.16,8.41
			c0,3.26-3.09,5.03-6.93,5.03c-2.23,0-3.96-0.6-5.54-1.45l0.95-1.84h0.06c1.3,0.92,2.81,1.43,4.72,1.43c2.85,0,4.58-1.17,4.58-2.92
			c0-3.53-7.16-3.63-7.16-8.47c0-2.95,2.61-4.8,6.6-4.8c1.87,0,3.34,0.42,4.78,1.31L93.41,233.12z"/>
		<path class="st0" d="M99.7,243.09c-0.42,2.37,0.43,3.18,2.08,3.19c0.72,0,1.3-0.13,2.38-0.69h0.06l0.25,1.71
			c-1.17,0.61-2.23,0.84-3.2,0.84c-2.67,0-4.25-1.79-3.71-4.88l1.94-11.04h-3.09l0.28-1.58l3.13-0.25l0.96-4.09l1.92-0.31l-0.8,4.55
			l5.07-0.25l-0.45,1.93h-4.92L99.7,243.09z"/>
		<path class="st0" d="M121.99,242.33c-0.18,1.03-0.49,3.7-0.42,5.32l-2.13,0.32c0-2.62,0.23-4.43,0.9-6.6h-0.12
			c-2.3,4.51-4.98,6.77-8,6.77c-3.01,0-4.41-2.25-3.57-6.15l1.36-6.28c0.42-1.96,0.53-2.91,0.49-5.27l2.11-0.34
			c0.05,2.06-0.01,3.43-0.45,5.43l-1.37,6.43c-0.59,2.79,0.27,4.33,1.96,4.33c3.28,0,7.65-5.96,8.79-12.51l0.6-3.39h1.94
			L121.99,242.33z"/>
		<path class="st0" d="M141.11,242.36c-0.35,1.99-0.46,3.76-0.43,5.27l-0.02,0.04l-2.08,0.3c-0.08-2.19,0.05-3.47,0.78-6.48h-0.11
			c-2.12,4.06-4.68,6.64-7.98,6.64c-2.83,0-4.4-1.87-4.4-5.51c0-6.63,5.14-12.57,11.01-12.57c1.28,0,2.39,0.27,3.35,0.71l1.28-7.2
			l1.98-0.29L141.11,242.36z M140.65,234.06l0.22-1.25c-0.64-0.5-2.01-0.9-3.31-0.9c-4.63,0-8.44,4.93-8.44,10.57
			c0,2.45,0.74,3.79,2.5,3.79C135.31,246.27,139.28,240.47,140.65,234.06z"/>
		<path class="st0" d="M146.94,248.1c-0.1-1.61,0.04-3.31,0.37-5.13l2.17-12.28l2.16-0.31l-2.23,12.59
			c-0.32,1.82-0.46,3.21-0.36,4.79L146.94,248.1L146.94,248.1z M149.75,225.8c0-1.01,0.96-1.86,2-1.86c0.87,0,1.47,0.57,1.47,1.43
			c0,1.01-0.96,1.86-2,1.86C150.34,227.23,149.75,226.66,149.75,225.8z"/>
		<path class="st0" d="M154.53,241c0-5.91,4.18-10.95,9.36-10.95c3.78,0,6.07,2.68,6.07,7.13c0,5.92-4.06,10.95-9.25,10.95
			C156.92,248.14,154.53,245.48,154.53,241z M167.77,237.23c0-3.6-1.69-5.31-4.15-5.31c-3.89,0-6.9,4.33-6.89,9.08
			c0.01,3.58,1.7,5.27,4.16,5.27C164.71,246.27,167.77,242.09,167.77,237.23z"/>
		<path class="st0" d="M178.09,233.06c-0.4,2.02,0.58,3.68,1.78,3.78l-0.39,2.23c-1.25,0.1-2.69,1.46-3.1,3.78l-0.33,1.89
			l-0.19,1.14c-0.7,4.24-3.05,6.78-6.81,6.78l0.35-2.08c2.38,0,3.89-1.58,4.4-4.7l0.19-1.14l0.29-1.72
			c0.45-2.71,1.47-4.15,3.16-5.19l0.01-0.06c-1.38-1.08-1.68-2.63-1.37-4.78l0.1-0.7l0.45-2.55c0.58-3.28-0.32-4.85-2.69-4.85
			l0.35-1.93c3.66,0,5.16,2.57,4.41,6.78l-0.45,2.55L178.09,233.06L178.09,233.06z"/>
	</g>
	<g>
		<path class="st1" d="M156.48,31.79c0-8.24,0-15.43,0-23.3c-8.84,3.5-17,6.72-26.08,10.32c0-6.35,0-11.93,0-18.52
			c-5.45,4.39-9.93,7.99-14.44,11.63c-4.73-3.92-9.03-7.48-14.29-11.83c0,6.74,0,12.36,0,18.71c-8.94-3.55-17.08-6.78-26.05-10.34
			c0,8.02,0,15.2,0,23.24c-8.09-3.29-15.36-6.24-23.42-9.52c0,9.82,0,18.74,0,27.67c0,6.56,0,13.11,0,20.42
			c8.02-3.26,15.28-6.21,23.32-9.48c0,8,0,15.18,0,23.19c9.01-3.55,17.25-6.79,26.31-10.35c0,6.54,0,12.03,0,18.54
			c5.27-4.31,9.71-7.94,14.2-11.62c4.77,3.82,9.22,7.38,14.72,11.78c0-6.9,0-12.39,0-18.6c8.86,3.54,16.99,6.78,25.89,10.33
			c0-8.06,0-15.25,0-23.28c8.02,3.25,15.29,6.2,23.16,9.39c0-8.51,0-16.27,0-24.04c0-7.72,0-15.43,0-23.95
			C171.75,25.49,164.53,28.47,156.48,31.79z M159.66,48.57c-4.85,5.05-10.32,9.34-16.58,12.63c-5.2,2.73-10.69,4.62-16.52,5.59
			c-4.5,0.75-9.03,0.91-13.56,0.46c-9.32-0.92-17.75-4.17-25.45-9.3c-4.79-3.19-9.05-6.98-12.88-11.23c-0.09-0.1-0.16-0.2-0.27-0.35
			c0.91-0.98,1.8-1.97,2.73-2.92c5.18-5.32,11.05-9.76,17.8-13.06c5.11-2.49,10.48-4.17,16.14-4.98c4.06-0.58,8.14-0.68,12.22-0.28
			c8.76,0.85,16.77,3.75,24.15,8.38c5.41,3.39,10.15,7.52,14.38,12.22c0.06,0.07,0.11,0.14,0.21,0.27
			C161.23,46.88,160.46,47.74,159.66,48.57z"/>
		<path class="st1" d="M127.58,35.28c-6.71-4.99-10.87,1.69-11.58,2.96c-0.71-1.27-4.86-7.95-11.58-2.96
			c-2.24,1.67-5.87,8.97,2.21,15.66c1.94,1.61,5.98,4.41,8.08,6.52c0.43,0.4,0.84,0.87,1.21,1.39c0.03,0.04,0.05,0.07,0.07,0.11
			c0.02-0.04,0.05-0.07,0.07-0.11c0.37-0.52,0.79-0.98,1.21-1.39c2.11-2.11,6.14-4.91,8.08-6.51
			C133.45,44.25,129.82,36.95,127.58,35.28z"/>
	</g>
</g>
</svg>
