<?xml version="1.0" encoding="utf-8"?>
<!-- Generator: Adobe Illustrator 25.2.3, SVG Export Plug-In . SVG Version: 6.00 Build 0)  -->
<svg version="1.1" id="Capa_1" xmlns="http://www.w3.org/2000/svg" xmlns:xlink="http://www.w3.org/1999/xlink" x="0px" y="0px"
	 viewBox="0 0 25 25" style="enable-background:new 0 0 25 25;" xml:space="preserve">
<style type="text/css">
	.st0{fill:#FFFFFF;}
</style>
<g>
	<path class="st0" d="M15.5,6.39h-6c-1.71,0-3.1,1.39-3.1,3.1v6.01c0,1.71,1.39,3.1,3.1,3.1h6c1.71,0,3.1-1.39,3.1-3.1V9.5
		C18.61,7.79,17.21,6.39,15.5,6.39z M12.56,16.2c-2.04,0-3.7-1.66-3.7-3.7c0-2.04,1.66-3.7,3.7-3.7c2.04,0,3.7,1.66,3.7,3.7
		C16.27,14.54,14.6,16.2,12.56,16.2z M16.48,9.43c-0.49,0-0.88-0.39-0.88-0.88c0-0.49,0.39-0.88,0.88-0.88s0.88,0.39,0.88,0.88
		C17.36,9.03,16.97,9.43,16.48,9.43z"/>
	<path class="st0" d="M12.56,10.13c-1.31,0-2.37,1.06-2.37,2.37s1.06,2.37,2.37,2.37c1.31,0,2.37-1.06,2.37-2.37
		S13.87,10.13,12.56,10.13z"/>
	<path class="st0" d="M12.5,0.13C5.67,0.13,0.13,5.67,0.13,12.5c0,6.83,5.54,12.37,12.37,12.37c6.83,0,12.37-5.54,12.37-12.37
		C24.87,5.67,19.33,0.13,12.5,0.13z M20.02,15.5c0,2.49-2.03,4.52-4.52,4.52h-6c-2.49,0-4.52-2.03-4.52-4.52V9.5
		c0-2.49,2.03-4.52,4.52-4.52h6c2.49,0,4.52,2.03,4.52,4.52V15.5z"/>
</g>
</svg>
